<?xml version="1.0" standalone="no"?>
<!DOCTYPE svg PUBLIC "-//W3C//DTD SVG 20010904//EN"
 "http://www.w3.org/TR/2001/REC-SVG-20010904/DTD/svg10.dtd">
<svg version="1.0" xmlns="http://www.w3.org/2000/svg"
 width="752.000000pt" height="374.000000pt" viewBox="0 0 752.000000 374.000000"
 preserveAspectRatio="xMidYMid meet">

<g transform="translate(0.000000,374.000000) scale(0.100000,-0.100000)"
fill="#FFFFFF" stroke="none">
<path d="M1410 2563 l0 -527 58 55 c31 31 224 215 427 409 204 195 425 407
492 472 l121 118 -549 0 -549 0 0 -527z"/>
<path d="M2650 2550 l0 -541 123 3 122 3 3 538 2 537 -125 0 -125 0 0 -540z"/>
<path d="M3259 3076 c-99 -26 -190 -103 -233 -195 -20 -44 -21 -61 -21 -331
l0 -285 28 -56 c30 -62 93 -126 155 -158 69 -35 152 -41 580 -41 l412 0 0 125
0 125 -402 0 c-222 1 -423 5 -448 9 -79 16 -80 20 -80 282 0 226 0 228 24 256
l24 28 441 3 441 3 0 124 0 125 -437 -1 c-314 0 -451 -4 -484 -13z"/>
<path d="M4282 2553 l3 -538 122 -3 123 -3 2 208 3 208 73 3 74 3 214 -211
215 -210 164 0 c91 0 165 4 165 8 0 4 -119 124 -265 266 -146 142 -265 262
-263 266 2 5 113 124 248 266 135 141 247 261 248 265 2 5 -72 9 -165 8 l-168
0 -193 -205 -193 -204 -80 0 -79 0 0 205 0 205 -125 0 -125 0 2 -537z"/>
<path d="M5685 3081 c-93 -23 -179 -103 -216 -200 -17 -45 -20 -72 -17 -141 5
-101 30 -163 92 -225 82 -81 72 -79 514 -85 334 -4 394 -7 402 -20 18 -29 22
-78 8 -107 l-13 -28 -478 -3 -477 -2 0 -130 0 -130 458 0 c251 0 483 4 516 10
103 17 192 94 233 202 24 65 21 190 -6 260 -27 69 -93 141 -159 171 -45 21
-61 22 -432 25 -433 3 -410 -1 -410 79 0 30 6 49 20 63 19 19 33 20 490 20
l470 0 0 125 0 125 -482 -1 c-266 -1 -496 -4 -513 -8z"/>
<path d="M2010 2256 l0 -226 250 0 250 0 -233 213 c-128 116 -240 218 -250
226 -16 13 -17 1 -17 -213z"/>
<path d="M723 1799 c-75 -29 -154 -104 -187 -179 l-27 -60 3 -288 3 -287 29
-53 c37 -66 92 -116 165 -151 l56 -26 458 -3 457 -3 0 331 0 330 -290 0 -290
0 0 -125 0 -125 165 0 165 0 0 -80 0 -81 -316 3 -316 3 -19 24 c-18 21 -19 42
-19 261 l0 239 26 20 c26 21 37 21 460 21 l434 0 0 125 0 125 -452 -1 c-429 0
-456 -1 -505 -20z"/>
<path d="M1790 1285 l0 -535 570 0 570 0 0 125 0 125 -445 0 -445 0 0 80 0 80
415 0 415 0 0 125 0 125 -415 0 -415 0 0 80 0 80 445 0 445 0 0 125 0 125
-570 0 -570 0 0 -535z"/>
<path d="M3040 1285 l0 -535 570 0 570 0 0 125 0 125 -445 0 -445 0 0 80 0 80
415 0 415 0 0 125 0 125 -415 0 -415 0 0 80 0 80 445 0 445 0 0 125 0 125
-570 0 -570 0 0 -535z"/>
<path d="M4280 1285 l0 -535 125 0 125 0 0 205 0 205 83 0 82 0 205 -205 205
-205 170 0 170 0 -269 269 -269 269 208 219 c115 120 229 239 254 266 l45 47
-171 0 -171 0 -193 -205 -194 -206 -75 3 -75 3 -3 203 -2 202 -125 0 -125 0 0
-535z"/>
<path d="M5642 1803 c-54 -19 -131 -94 -162 -158 -35 -73 -40 -199 -10 -277
28 -75 95 -149 162 -179 52 -24 59 -24 438 -29 l384 -5 14 -25 c16 -31 7 -100
-15 -117 -13 -10 -126 -13 -485 -13 l-468 0 0 -125 0 -126 503 3 502 3 48 25
c191 97 232 382 78 543 -20 21 -54 48 -76 60 -39 21 -54 22 -433 27 -375 5
-394 6 -408 24 -16 23 -18 73 -4 110 l9 26 478 2 478 3 3 123 3 122 -498 -1
c-418 0 -505 -3 -541 -16z"/>
</g>
</svg>
